# xmcd CD database file
#
# Track frame offsets:
#	150
#	17449
#	32552
#	46564
#	63237
#	80312
#	98091
#	115789
#	131404
#	146427
#	163752
#	179054
#
# Disc length: 2607 seconds
#
# Revision: 1
# Processed by: cddbd v1.5.2PL0 Copyright (c) Steve Scherf et al.
# Submitted via: CDex 1.70beta2
#
DISCID=8d0a2d0c
DTITLE=Haddaway - Pop Splits
DYEAR=2005
DGENRE=Blues
TTITLE0=Spaceman
TTITLE1=Catch u if ican
TTITLE2=Missionary man
TTITLE3=shout
TTITLE4=Turn her love
TTITLE5=It was nice
TTITLE6=Lay your head
TTITLE7=What in the world
TTITLE8=Not in my bed
TTITLE9=All i want is you
TTITLE10=High on you
TTITLE11=Fallen angel
EXTD=YEAR: 2005
EXTT0=
EXTT1=
EXTT2=
EXTT3=
EXTT4=
EXTT5=
EXTT6=
EXTT7=
EXTT8=
EXTT9=
EXTT10=
EXTT11=
PLAYORDER=
